<svg width="720" height="300" viewBox="0 0 720 300" fill="none" xmlns="http://www.w3.org/2000/svg">
  <defs>
    <linearGradient id="bg" x1="0" y1="0" x2="720" y2="300" gradientUnits="userSpaceOnUse">
      <stop stop-color="#7E0E16"/>
      <stop offset="0.55" stop-color="#A3131D"/>
      <stop offset="1" stop-color="#7C0D15"/>
    </linearGradient>
    <radialGradient id="glow" cx="0" cy="0" r="1" gradientUnits="userSpaceOnUse" gradientTransform="translate(360 150) rotate(90) scale(170 320)">
      <stop stop-color="#D65059" stop-opacity="0.35"/>
      <stop offset="1" stop-color="#D65059" stop-opacity="0"/>
    </radialGradient>
    <pattern id="ornament" width="120" height="120" patternUnits="userSpaceOnUse">
      <path d="M16 60C28 44 44 44 60 60C76 76 92 76 104 60" stroke="#F6D1D4" stroke-opacity="0.08" stroke-width="4" stroke-linecap="round"/>
      <path d="M16 84C30 70 46 70 60 84C74 98 90 98 104 84" stroke="#F6D1D4" stroke-opacity="0.06" stroke-width="3" stroke-linecap="round"/>
      <circle cx="60" cy="60" r="26" stroke="#F6D1D4" stroke-opacity="0.06" stroke-width="2"/>
      <circle cx="60" cy="60" r="10" stroke="#F6D1D4" stroke-opacity="0.05" stroke-width="2"/>
    </pattern>
    <filter id="soft" x="-20%" y="-20%" width="140%" height="140%">
      <feGaussianBlur stdDeviation="2"/>
    </filter>
  </defs>

  <rect width="720" height="300" rx="28" fill="url(#bg)"/>
  <rect width="720" height="300" rx="28" fill="url(#ornament)"/>
  <rect width="720" height="300" rx="28" fill="url(#glow)"/>

  <path d="M0 36H720" stroke="#F4D6D8" stroke-opacity="0.14" stroke-width="2"/>
  <path d="M0 264H720" stroke="#54050C" stroke-opacity="0.28" stroke-width="2"/>

  <g opacity="0.42" filter="url(#soft)">
    <path d="M82 80C122 30 208 24 258 72" stroke="#F6D1D4" stroke-width="7" stroke-linecap="round"/>
    <path d="M462 232C506 188 592 182 640 224" stroke="#F6D1D4" stroke-width="7" stroke-linecap="round"/>
  </g>

  <g opacity="0.62">
    <rect x="115" y="88" width="490" height="124" rx="6" stroke="#E8BDC0" stroke-width="2"/>
    <rect x="128" y="100" width="464" height="100" rx="4" stroke="#E8BDC0" stroke-opacity="0.55" stroke-width="1.5"/>
    <path d="M178 100V200" stroke="#E8BDC0" stroke-opacity="0.45" stroke-width="1.5"/>
    <path d="M542 100V200" stroke="#E8BDC0" stroke-opacity="0.45" stroke-width="1.5"/>
  </g>

  <text
    x="360"
    y="170"
    text-anchor="middle"
    fill="#FFF7F0"
    font-family="Georgia, 'Times New Roman', serif"
    font-size="82"
    letter-spacing="2"
  >
    INVOICE
  </text>
</svg>
